<svg xmlns="http://www.w3.org/2000/svg" viewBox="1.2 2.4 21.6 19.2">
  <path d="M20.4 2.4H3.6a2.4 2.4 0 00-2.4 2.4v14.4a2.4 2.4 0 002.4 2.4h16.8c1.32 0 2.4-1.08 2.4-2.4V4.8c0-1.32-1.08-2.4-2.4-2.4zm-9.6 8.4H9v-.6H6.6v3.6H9v-.6h1.8v1.2c0 .66-.54 1.2-1.2 1.2H6c-.66 0-1.2-.54-1.2-1.2V9.6c0-.66.54-1.2 1.2-1.2h3.6c.66 0 1.2.54 1.2 1.2v1.2zm8.4 0h-1.8v-.6H15v3.6h2.4v-.6h1.8v1.2c0 .66-.54 1.2-1.2 1.2h-3.6c-.66 0-1.2-.54-1.2-1.2V9.6c0-.66.54-1.2 1.2-1.2H18c.66 0 1.2.54 1.2 1.2v1.2z" fill="#fff"/>
</svg>